<?xml version="1.0" standalone="no"?><!DOCTYPE svg PUBLIC "-//W3C//DTD SVG 1.1//EN" "http://www.w3.org/Graphics/SVG/1.1/DTD/svg11.dtd"><svg class="icon" width="128px" height="128.00px" viewBox="0 0 1024 1024" version="1.1" xmlns="http://www.w3.org/2000/svg"><path d="M275.5584 494.830933s208.5888-205.687467 152.405333-444.526933C414.711467-5.973333 527.556267 67.464533 583.3728 179.9936c45.056 90.9056 47.7696 219.588267 47.7696 219.588267s107.537067-152.2432 76.219733-228.616534c-46.711467-113.885867 144.2048 68.599467 213.538134 270.8992 42.820267 124.945067-7.8592 257.442133-48.426667 332.3904-102.647467 189.610667-458.9568 357.8624-717.585067 44.416-114.304-215.876267 49.109333-447.598933 31.778134-527.0528C167.432533 203.4176 319.829333 411.392 275.5584 494.830933z" fill="#f4ea2a" /><path d="M324.266667 659.2L146.525867 567.7056s-13.431467 123.8784 0 164.027733S324.266667 659.2 324.266667 659.2zM454.4 627.2l285.866667-187.733333S866.133333 591.2832 793.6 654.045867 454.4 627.2 454.4 627.2zM418.133333 844.8s122.666667 43.733333 107.451734-42.666667" fill="#FCFCFC" /></svg>