<?xml version="1.0" standalone="no"?><!DOCTYPE svg PUBLIC "-//W3C//DTD SVG 1.1//EN" "http://www.w3.org/Graphics/SVG/1.1/DTD/svg11.dtd"><svg t="1643437474538" class="icon" viewBox="0 0 1024 1024" version="1.1" xmlns="http://www.w3.org/2000/svg" p-id="998" xmlns:xlink="http://www.w3.org/1999/xlink" width="128" height="128"><defs><style type="text/css"></style></defs><path d="M854.2 449.8H171.5c-27.9 0-50.5 22.6-50.5 50.5v404c0 27.9 22.6 50.5 50.5 50.5h682.7c27.9 0 50.5-22.6 50.5-50.5v-404c0-27.9-22.6-50.5-50.5-50.5z m-11.1 443.4H182.5V511.3h660.6v381.9zM340.4 137.7h344.8c20.3 0 36.9-16.6 36.9-36.9s-16.6-36.9-36.9-36.9H340.4c-20.3 0-36.9 16.6-36.9 36.9s16.6 36.9 36.9 36.9z" fill="#f4ea2a" p-id="999"></path><path d="M372.1 752.6h281.5c20.3 0 36.9-16.6 36.9-36.9 0-20.3-16.6-36.9-36.9-36.9H372.1c-20.3 0-36.9 16.6-36.9 36.9 0 20.3 16.6 36.9 36.9 36.9zM231.7 332h562.2c20.3 0 36.9-16.6 36.9-36.9 0-20.3-16.6-36.9-36.9-36.9H231.7c-20.3 0-36.9 16.6-36.9 36.9 0 20.3 16.6 36.9 36.9 36.9z" fill="#f4ea2a" p-id="1000"></path></svg>