<?xml version="1.0" standalone="no"?><!DOCTYPE svg PUBLIC "-//W3C//DTD SVG 1.1//EN" "http://www.w3.org/Graphics/SVG/1.1/DTD/svg11.dtd"><svg class="icon" width="128px" height="128.00px" viewBox="0 0 1024 1024" version="1.1" xmlns="http://www.w3.org/2000/svg"><path d="M409.6 452.266667c-34.133333 0-64-29.866667-64-64s29.866667-64 64-64 59.733333 29.866667 59.733333 64-25.6 64-59.733333 64z m0-106.666667c-25.6 0-46.933333 21.333333-46.933333 42.666667s21.333333 46.933333 46.933333 46.933333 46.933333-21.333333 46.933333-46.933333-21.333333-42.666667-46.933333-42.666667zM558.933333 537.6c-25.6 0-46.933333-21.333333-46.933333-46.933333s21.333333-46.933333 46.933333-46.933334c25.6 0 46.933333 21.333333 46.933334 46.933334s-21.333333 46.933333-46.933334 46.933333z m0-76.8c-17.066667 0-29.866667 12.8-29.866666 29.866667s12.8 29.866667 29.866666 29.866666c17.066667 0 29.866667-12.8 29.866667-29.866666s-12.8-29.866667-29.866667-29.866667z"  /><path d="M597.333333 571.733333m-238.933333 0a238.933333 238.933333 0 1 0 477.866667 0 238.933333 238.933333 0 1 0-477.866667 0Z" fill="#8d1396" /><path d="M512 785.066667c-162.133333 0-294.4-132.266667-294.4-294.4 0-162.133333 132.266667-294.4 294.4-294.4s294.4 132.266667 294.4 294.4c0 162.133333-132.266667 294.4-294.4 294.4z m0-554.666667c-140.8 0-256 119.466667-256 260.266667s115.2 260.266667 260.266667 260.266666c145.066667 0 260.266667-115.2 260.266666-260.266666S657.066667 230.4 512 230.4z"  /><path d="M345.6 691.2c-93.866667 0-166.4-29.866667-192-89.6-25.6-59.733333 4.266667-136.533333 85.333333-213.333333 8.533333-4.266667 17.066667-4.266667 25.6 4.266666 8.533333 8.533333 4.266667 17.066667 0 25.6-68.266667 64-93.866667 128-76.8 174.933334 34.133333 81.066667 213.333333 89.6 388.266667 17.066666 89.6-38.4 166.4-89.6 213.333333-145.066666 46.933333-55.466667 64-106.666667 46.933334-145.066667-21.333333-55.466667-102.4-81.066667-213.333334-64-8.533333 0-17.066667-4.266667-21.333333-12.8 0-8.533333 4.266667-17.066667 12.8-21.333333 128-17.066667 221.866667 12.8 251.733333 85.333333 21.333333 51.2 4.266667 115.2-51.2 179.2-51.2 59.733333-132.266667 115.2-226.133333 153.6-85.333333 34.133333-170.666667 51.2-243.2 51.2z"  /></svg>